<svg xmlns="http://www.w3.org/2000/svg"
 width="700.000000pt" height="700.000000pt" viewBox="0 0 700.000000 700.000000"
 preserveAspectRatio="xMidYMid meet">
<g transform="translate(0.000000,700.000000) scale(0.100000,-0.100000)"
fill="#000000" stroke="none">
<path d="M3235 5793 c-317 -43 -618 -217 -788 -455 -48 -66 -124 -209 -131
-243 -2 -11 -11 -40 -19 -65 -34 -105 -42 -167 -42 -345 0 -158 7 -225 36
-337 29 -117 69 -208 131 -298 58 -84 342 -369 478 -480 195 -158 263 -277
261 -450 -2 -116 -29 -232 -78 -337 -34 -73 -140 -235 -189 -288 -51 -55 -218
-235 -428 -459 -61 -65 -115 -124 -121 -130 -5 -7 -25 -28 -43 -47 l-33 -36
310 -311 309 -312 104 76 c90 67 253 197 268 213 3 3 39 35 80 70 94 82 386
373 465 466 33 38 66 76 73 84 30 31 174 213 244 307 205 277 341 521 446 804
43 116 78 225 72 225 -1 0 3 12 9 28 6 15 13 38 16 50 11 52 26 125 31 157 3
19 8 38 10 41 1 3 6 34 10 70 3 35 8 67 10 70 18 31 26 500 11 619 -26 203
-100 440 -185 590 -163 290 -344 482 -559 593 -88 45 -252 101 -328 112 -23 3
-52 8 -65 11 -32 7 -325 13 -365 7z"/>
</g>
</svg>
